<svg width="25" height="24" viewBox="0 0 25 24" fill="none" xmlns="http://www.w3.org/2000/svg">
<path d="M8.75 18.5625V19.8212C8.75006 20.3139 8.65305 20.8017 8.46453 21.2568C8.276 21.7119 7.99964 22.1255 7.65125 22.4737L6.875 23.25H18.125L17.3487 22.4737C17.0004 22.1255 16.724 21.7119 16.5355 21.2568C16.3469 20.8017 16.2499 20.3139 16.25 19.8212V18.5625M23.75 3.5625V15.75C23.75 16.4959 23.4537 17.2113 22.9262 17.7387C22.3988 18.2662 21.6834 18.5625 20.9375 18.5625H4.0625C3.31658 18.5625 2.60121 18.2662 2.07376 17.7387C1.54632 17.2113 1.25 16.4959 1.25 15.75V3.5625M23.75 3.5625C23.75 2.81658 23.4537 2.10121 22.9262 1.57376C22.3988 1.04632 21.6834 0.75 20.9375 0.75H4.0625C3.31658 0.75 2.60121 1.04632 2.07376 1.57376C1.54632 2.10121 1.25 2.81658 1.25 3.5625M23.75 3.5625V12C23.75 12.7459 23.4537 13.4613 22.9262 13.9887C22.3988 14.5162 21.6834 14.8125 20.9375 14.8125H4.0625C3.31658 14.8125 2.60121 14.5162 2.07376 13.9887C1.54632 13.4613 1.25 12.7459 1.25 12V3.5625" stroke="#6A6A6A" stroke-width="1.25" stroke-linecap="round" stroke-linejoin="round"/>
</svg>
