<svg width="14" height="23" viewBox="0 0 14 23" fill="none" xmlns="http://www.w3.org/2000/svg">
<path d="M6.06534 22.6818V0.863635H7.46307V22.6818H6.06534ZM10.4375 7.63068C10.3466 6.82386 9.97159 6.19886 9.3125 5.75568C8.65341 5.30682 7.82386 5.08239 6.82386 5.08239C6.10795 5.08239 5.48864 5.19602 4.96591 5.42329C4.44318 5.64489 4.03693 5.9517 3.74716 6.34375C3.46307 6.73011 3.32102 7.17045 3.32102 7.66477C3.32102 8.07955 3.41761 8.4375 3.6108 8.73864C3.80966 9.03977 4.06818 9.29261 4.38636 9.49716C4.71023 9.69602 5.05682 9.86364 5.42614 10C5.79545 10.1307 6.15057 10.2386 6.49148 10.3239L8.19602 10.767C8.75284 10.9034 9.32386 11.0881 9.90909 11.321C10.4943 11.554 11.0369 11.8608 11.5369 12.2415C12.0369 12.6222 12.4403 13.0938 12.7472 13.6562C13.0597 14.2188 13.2159 14.892 13.2159 15.6761C13.2159 16.6648 12.9602 17.5426 12.4489 18.3097C11.9432 19.0767 11.2074 19.6818 10.2415 20.125C9.28125 20.5682 8.11932 20.7898 6.75568 20.7898C5.44886 20.7898 4.31818 20.5824 3.36364 20.1676C2.40909 19.7528 1.66193 19.1648 1.12216 18.4034C0.582386 17.6364 0.284091 16.7273 0.227273 15.6761H2.86932C2.92045 16.3068 3.125 16.8324 3.48295 17.2528C3.84659 17.6676 4.30966 17.9773 4.87216 18.1818C5.44034 18.3807 6.0625 18.4801 6.73864 18.4801C7.48295 18.4801 8.14489 18.3636 8.72443 18.1307C9.30966 17.892 9.76989 17.5625 10.1051 17.142C10.4403 16.7159 10.608 16.2187 10.608 15.6506C10.608 15.1335 10.4602 14.7102 10.1648 14.3807C9.875 14.0511 9.48011 13.7784 8.98011 13.5625C8.4858 13.3466 7.92614 13.1562 7.30114 12.9915L5.23864 12.429C3.84091 12.0483 2.73295 11.4886 1.91477 10.75C1.10227 10.0114 0.696023 9.03409 0.696023 7.81818C0.696023 6.8125 0.96875 5.93466 1.5142 5.18466C2.05966 4.43466 2.7983 3.85227 3.73011 3.4375C4.66193 3.01705 5.71307 2.80682 6.88352 2.80682C8.06534 2.80682 9.10795 3.0142 10.0114 3.42898C10.9205 3.84375 11.6364 4.41477 12.1591 5.14204C12.6818 5.86364 12.9545 6.69318 12.9773 7.63068H10.4375Z" fill="#0A0A0A"/>
</svg>
