<svg width="137" height="32" viewBox="0 0 137 32" fill="none" xmlns="http://www.w3.org/2000/svg">
<g clip-path="url(#clip0_1_2397)">
<path d="M18.3145 4.69884C19.744 4.63381 21.089 4.80212 22.4052 5.22913C26.0379 6.40767 28.8612 9.51041 29.7144 13.2366C30.876 18.31 28.3644 23.5644 23.4938 25.7798C21.6637 26.6122 19.7393 26.8957 17.7307 26.6856C13.3271 26.225 9.28383 22.9767 8.19331 18.1951C7.08308 13.3271 9.28284 8.45747 13.6519 6.03351C15.0853 5.23823 16.6269 4.80241 18.3145 4.69884Z" fill="#010101"/>
<path d="M116.53 7.67153C117.979 6.32457 119.629 5.42184 121.518 4.98176C127.653 3.55246 133.346 7.35702 134.776 12.9479C136.053 17.937 133.793 23.0132 129.32 25.4396C128.059 26.1235 126.71 26.5257 125.28 26.6878C121.157 27.1554 117.016 25.2117 114.736 21.585C113.835 20.151 113.28 18.591 113.118 16.9003C112.774 13.2924 113.925 10.232 116.53 7.67153Z" fill="#010101"/>
<path d="M36.2917 23.6502C37.2662 21.998 38.2219 20.3799 39.1679 18.7781C39.6632 18.7051 54.9952 18.6762 56.6028 18.7409C56.6181 18.7498 56.6341 18.7579 56.6486 18.768C56.6629 18.778 56.6802 18.7876 56.6887 18.8018C58.0443 21.0908 59.3994 23.3803 60.7541 25.6699C60.8081 25.7612 60.8593 25.8543 60.9103 25.9474C60.9185 25.9623 60.9219 25.9818 60.9216 25.999C60.9213 26.0156 60.9133 26.032 60.9087 26.0485C60.9009 26.0638 60.8966 26.0844 60.8841 26.0932C60.8711 26.1023 60.85 26.1026 60.8325 26.1026C52.2748 26.1051 43.717 26.1074 35.1592 26.1089C35.0913 26.1089 35.0233 26.0997 34.9142 26.0918C34.9487 25.9919 34.9634 25.9082 35.0036 25.8395C35.4243 25.1197 35.8491 24.4024 36.2917 23.6502Z" fill="#010101"/>
<path d="M107.019 23.713C107.478 24.5091 107.944 25.2562 108.356 25.9971C108.317 26.0656 108.312 26.0853 108.3 26.0936C108.286 26.1025 108.266 26.103 108.248 26.103C99.6724 26.1052 91.0969 26.1071 82.5213 26.1079C82.4716 26.108 82.4218 26.0937 82.3336 26.0803C82.3662 25.9891 82.3822 25.9058 82.4227 25.837C83.773 23.5443 85.1254 21.2529 86.4785 18.9618C86.5227 18.887 86.5763 18.8177 86.6281 18.742C92.4441 18.742 98.2459 18.742 104.085 18.742C105.054 20.3844 106.026 22.0325 107.019 23.713Z" fill="#010101"/>
<path d="M75.3089 5.37512C75.8744 5.37512 76.3867 5.37512 76.8911 5.37512C77.0203 5.58418 76.9708 5.78418 76.9711 5.97294C76.9748 8.45726 76.9736 10.9416 76.9736 13.4259C76.9736 14.3132 76.9744 15.2004 76.9727 16.0877C76.9724 16.2446 76.9613 16.4015 76.9566 16.5215C76.9196 16.5714 76.9117 16.5895 76.8978 16.5989C76.884 16.6081 76.8642 16.6124 76.8471 16.6124C73.4227 16.6173 69.9983 16.6218 66.574 16.6253C66.4689 16.6254 66.3638 16.6148 66.2363 16.608C66.2191 16.499 66.1892 16.3976 66.1891 16.2962C66.1867 12.765 66.1869 9.23367 66.188 5.70239C66.188 5.61632 66.2016 5.53025 66.2104 5.42585C66.407 5.34238 66.603 5.37713 66.7914 5.37696C69.6128 5.3743 72.4343 5.37512 75.3089 5.37512Z" fill="#020202"/>
<path d="M42.5964 16.626C41.8742 16.626 41.2054 16.626 40.5392 16.626C40.5354 16.554 40.5196 16.5123 40.5338 16.4882C42.9767 12.3339 45.4217 8.18092 47.8585 4.04153C48.061 4.02471 48.0747 4.18067 48.1304 4.27468C49.341 6.31792 50.5477 8.36345 51.7542 10.4091C52.8707 12.3022 53.9863 14.1957 55.1014 16.0896C55.1895 16.2393 55.2705 16.3931 55.3429 16.5235C55.3252 16.5746 55.3239 16.5963 55.3124 16.6068C55.3013 16.6168 55.2796 16.6181 55.2626 16.6181C51.0583 16.6211 46.854 16.6235 42.5964 16.626Z" fill="#020202"/>
<path d="M93.1214 7.70113C93.8648 6.45258 94.5757 5.22985 95.2895 4.03569C95.3531 4.03569 95.3721 4.03107 95.3869 4.03696C95.4024 4.04312 95.4179 4.05699 95.4265 4.07156C97.8601 8.19539 100.293 12.3195 102.725 16.4443C102.742 16.473 102.748 16.5098 102.753 16.5437C102.755 16.5594 102.742 16.5771 102.731 16.6094C97.8101 16.6094 92.8836 16.6094 87.963 16.6094C87.9512 16.576 87.942 16.5595 87.9403 16.5424C87.9388 16.5261 87.9427 16.508 87.9486 16.4924C87.9611 16.4593 87.9733 16.4254 87.9911 16.3951C89.6767 13.5388 91.3627 10.6829 93.0487 7.82694C93.0668 7.79639 93.0847 7.76576 93.1214 7.70113Z" fill="#020202"/>
<path d="M76.9735 19.2346C76.9735 21.5347 76.9735 23.7857 76.9735 26.0687C76.8581 26.0857 76.7765 26.1082 76.6949 26.1083C73.2877 26.11 69.8806 26.1099 66.4734 26.1091C66.4032 26.1091 66.3329 26.0984 66.239 26.0908C66.2215 25.9881 66.1894 25.8873 66.1893 25.7864C66.1866 23.515 66.1874 21.2435 66.1884 18.9721C66.1884 18.9195 66.1991 18.8668 66.2051 18.811C66.336 18.6758 66.5047 18.7291 66.656 18.7288C68.5371 18.725 70.4181 18.7263 72.2991 18.7263C73.6655 18.7263 75.032 18.7256 76.3984 18.7271C76.5721 18.7273 76.7459 18.7391 76.9494 18.7466C76.9585 18.9119 76.966 19.0486 76.9735 19.2346Z" fill="#020202"/>
</g>
<defs>
<clipPath id="clip0_1_2397">
<rect width="130" height="23.9754" fill="white" transform="translate(6.5 4.01229)"/>
</clipPath>
</defs>
</svg>
