<svg width="25" height="24" viewBox="0 0 25 24" fill="none" xmlns="http://www.w3.org/2000/svg">
<path fill-rule="evenodd" clip-rule="evenodd" d="M24.5 12C24.5 18.6274 19.1274 24 12.5 24C5.87258 24 0.5 18.6274 0.5 12C0.5 5.37258 5.87258 0 12.5 0C19.1274 0 24.5 5.37258 24.5 12ZM14.0119 7.80289L4.4818 11.6616C2.80482 12.3047 3.78554 12.9077 3.78554 12.9077C3.78554 12.9077 5.21712 13.39 6.44407 13.7516C7.67103 14.1134 8.32556 13.7114 8.32556 13.7114L14.0926 9.89296C16.1377 8.52619 15.6469 9.65166 15.1561 10.134C14.0928 11.179 12.3339 12.827 10.8614 14.1535C10.207 14.7162 10.5342 15.1986 10.8205 15.4397C11.653 16.132 13.6135 17.3906 14.5042 17.9627C14.7513 18.1213 14.9161 18.2272 14.9516 18.2533C15.1561 18.4141 16.3 19.1376 16.9966 18.9768C17.6931 18.8161 17.775 17.8916 17.775 17.8916L18.7974 11.5811C18.8876 10.9946 18.9777 10.4202 19.0618 9.88404C19.2832 8.47294 19.4631 7.32636 19.4928 6.91861C19.6155 5.55209 18.143 6.11476 18.143 6.11476C18.143 6.11476 14.9526 7.40096 14.0119 7.80289Z" fill="black"/>
</svg>
