<svg width="25" height="24" viewBox="0 0 25 24" fill="none" xmlns="http://www.w3.org/2000/svg">
<path fill-rule="evenodd" clip-rule="evenodd" d="M24.143 4.937C23.308 5.307 22.411 5.557 21.468 5.67C22.43 5.094 23.168 4.18 23.516 3.092C22.616 3.626 21.619 4.014 20.558 4.222C19.708 3.318 18.498 2.752 17.158 2.752C14.586 2.752 12.5 4.838 12.5 7.412C12.5 7.776 12.542 8.13 12.62 8.472C8.74701 8.277 5.31601 6.422 3.01801 3.604C2.61801 4.294 2.38801 5.094 2.38801 5.946C2.38801 7.562 3.21101 8.989 4.46001 9.824C3.69601 9.799 2.97801 9.59 2.35001 9.241V9.301C2.35001 11.558 3.95501 13.441 6.08701 13.869C5.69501 13.975 5.28401 14.031 4.86001 14.031C4.56001 14.031 4.26701 14.003 3.98301 13.949C4.57601 15.799 6.29601 17.147 8.33501 17.183C6.74001 18.433 4.73101 19.178 2.54901 19.178C2.17301 19.178 1.80201 19.156 1.43701 19.113C3.49901 20.436 5.94701 21.206 8.57701 21.206C17.147 21.206 21.832 14.108 21.832 7.952C21.832 7.752 21.827 7.55 21.818 7.35C22.728 6.692 23.518 5.873 24.141 4.94L24.143 4.937Z" fill="black"/>
</svg>
